<svg width="32" height="32" viewBox="0 0 32 32" fill="none" xmlns="http://www.w3.org/2000/svg">
<path d="M24 17.6087C26.877 17.6087 29.2174 19.9491 29.2174 22.8261C29.2174 25.7031 26.877 28.0435 24 28.0435C21.123 28.0435 18.7826 25.7031 18.7826 22.8261C18.7826 19.9491 21.123 17.6087 24 17.6087ZM24 25.9566C25.7262 25.9566 27.1305 24.5523 27.1305 22.8262C27.1305 21.1 25.7262 19.6957 24 19.6957C22.2738 19.6957 20.8696 21.1 20.8696 22.8262C20.8696 24.5523 22.2738 25.9566 24 25.9566Z" fill="#7DA500"/>
<path d="M3.13045 21.7827C4.85664 21.7827 6.26089 23.1869 6.26089 24.9131C6.26089 26.6393 4.85664 28.0435 3.13045 28.0435C1.40426 28.0435 7.87817e-06 26.6393 7.87817e-06 24.9131C7.87817e-06 23.1869 1.40426 21.7827 3.13045 21.7827ZM3.13045 25.9566C3.70583 25.9566 4.17395 25.4885 4.17395 24.9131C4.17395 24.3377 3.70583 23.8696 3.13045 23.8696C2.55508 23.8696 2.08695 24.3377 2.08695 24.9131C2.08695 25.4885 2.55508 25.9566 3.13045 25.9566Z" fill="#7DA500"/>
<path d="M6.70371 13.0156L17.1365 9.88564C17.686 9.7207 18.2708 10.0354 18.4357 10.5851L18.7939 11.778L6.36146 15.5076L6.00408 14.3145C5.83877 13.7627 6.15196 13.1811 6.70371 13.0156Z" fill="#7DA500"/>
<path d="M2.83076 17.6529L23.2679 11.5218L27.2405 3.57675C27.4171 3.2235 27.7785 3 28.1739 3H30.9565C31.5326 3 32 3.46744 32 4.0435C32 4.61957 31.5326 5.087 30.9565 5.087H28.8186L25.0434 12.638V15.6052C24.7017 15.5559 24.3551 15.5218 24 15.5218C19.9722 15.5218 16.6956 18.7983 16.6956 22.8262C16.6956 23.9474 16.957 25.0062 17.4102 25.9566H8.24258C8.31139 25.6193 8.34771 25.2705 8.34771 24.9131C8.34777 22.0361 6.00739 19.6957 3.13039 19.6957C2.77301 19.6957 2.4242 19.732 2.08688 19.8008V18.6523C2.08688 18.1916 2.38926 17.7853 2.83076 17.6529ZM10.0869 21.7827H14.2608C14.8369 21.7827 15.3043 21.3152 15.3043 20.7392C15.3043 20.1631 14.8369 19.6957 14.2608 19.6957H10.0869C9.51083 19.6957 9.0434 20.1631 9.0434 20.7392C9.0434 21.3152 9.51083 21.7827 10.0869 21.7827Z" fill="#7DA500"/>
</svg>
