<svg width="205" height="50" fill="none" xmlns="http://www.w3.org/2000/svg">
  <path d="M39 28.96A6.53 6.53 0 1 1 38.99 42 6.53 6.53 0 0 1 39 28.96Zm0 10.43a3.92 3.92 0 1 0 0-7.83 3.92 3.92 0 0 0 0 7.83Zm-26.09-5.22a3.92 3.92 0 1 1 0 7.84 3.92 3.92 0 0 1 0-7.84Zm0 5.22a1.3 1.3 0 1 0 0-2.61 1.3 1.3 0 0 0 0 2.61Zm4.47-16.17 13.04-3.92a1.3 1.3 0 0 1 1.62.88l.45 1.49-15.54 4.66-.44-1.5a1.3 1.3 0 0 1 .87-1.61Z" fill="#7DA500"/>
  <path d="m12.54 29.01 25.54-7.66 4.97-9.93a1.3 1.3 0 0 1 1.17-.72h3.48a1.3 1.3 0 0 1 0 2.6h-2.68l-4.72 9.44v3.71a9.14 9.14 0 0 0-9.54 12.94H19.3a6.52 6.52 0 0 0-7.7-7.7v-1.43c0-.57.39-1.08.94-1.25Zm9.07 5.16h5.22a1.3 1.3 0 0 0 0-2.6H21.6a1.3 1.3 0 0 0 0 2.6ZM55.26 29V14.45h9.8V17h-6.72v3.47h6.22V23h-6.22v3.47h6.75V29h-9.83Zm12.25 0V14.45h3.08v6.42h.19L76 14.45h3.69l-5.4 6.52L79.76 29h-3.68l-3.98-5.98-1.51 1.85V29H67.5Zm26.34-7.27c0 1.58-.3 2.93-.9 4.05a6.25 6.25 0 0 1-2.45 2.55 6.9 6.9 0 0 1-3.47.87c-1.29 0-2.45-.3-3.48-.88a6.27 6.27 0 0 1-2.43-2.55 8.45 8.45 0 0 1-.9-4.04c0-1.59.3-2.94.9-4.05a6.22 6.22 0 0 1 2.43-2.54 6.89 6.89 0 0 1 3.48-.88c1.29 0 2.44.29 3.47.88a6.2 6.2 0 0 1 2.44 2.54c.6 1.11.9 2.46.9 4.05Zm-3.12 0a6.5 6.5 0 0 0-.46-2.6c-.3-.7-.74-1.24-1.29-1.6a3.46 3.46 0 0 0-1.95-.55c-.74 0-1.39.18-1.94.54-.56.37-.99.9-1.3 1.6a6.7 6.7 0 0 0-.45 2.6c0 1.03.15 1.9.46 2.6.3.71.73 1.25 1.29 1.61.55.37 1.2.55 1.94.55.75 0 1.4-.18 1.95-.55.55-.36.98-.9 1.29-1.6.3-.7.46-1.58.46-2.6Z" fill="#7DA500"/>
  <path d="M102.86 20.53v2.4h-6.63v-2.4h6.63ZM105.5 29V14.45h3.07v6.42h.2l5.23-6.42h3.69l-5.4 6.52 5.46 8.03h-3.68l-3.98-5.98-1.52 1.85V29h-3.07Zm26.33-7.27c0 1.58-.3 2.93-.9 4.05a6.26 6.26 0 0 1-2.44 2.55 6.9 6.9 0 0 1-3.47.87c-1.29 0-2.45-.3-3.48-.88a6.26 6.26 0 0 1-2.43-2.55 8.45 8.45 0 0 1-.9-4.04c0-1.59.3-2.94.9-4.05a6.21 6.21 0 0 1 2.43-2.54 6.88 6.88 0 0 1 3.48-.88c1.29 0 2.44.29 3.47.88a6.21 6.21 0 0 1 2.44 2.54c.6 1.11.9 2.46.9 4.05Zm-3.11 0a6.5 6.5 0 0 0-.47-2.6 3.5 3.5 0 0 0-1.28-1.6 3.46 3.46 0 0 0-1.95-.55c-.74 0-1.39.18-1.94.54-.56.37-.99.9-1.3 1.6a6.7 6.7 0 0 0-.45 2.6c0 1.03.15 1.9.45 2.6.31.71.74 1.25 1.3 1.61.55.37 1.2.55 1.94.55.75 0 1.4-.18 1.95-.55.55-.36.98-.9 1.28-1.6.31-.7.47-1.58.47-2.6Zm13.28-3.1a1.8 1.8 0 0 0-.73-1.33 2.9 2.9 0 0 0-1.75-.47c-.5 0-.93.07-1.28.21a1.8 1.8 0 0 0-.79.58c-.18.24-.27.52-.27.83 0 .26.04.5.16.68.13.2.3.37.5.5.22.15.47.27.75.37.28.1.57.19.9.26l1.3.31c.63.14 1.22.33 1.75.57.53.23.99.53 1.37.87a3.63 3.63 0 0 1 1.24 2.84c0 .89-.23 1.66-.68 2.31a4.33 4.33 0 0 1-1.94 1.51 7.6 7.6 0 0 1-3.03.54 8 8 0 0 1-3.07-.54 4.5 4.5 0 0 1-2.03-1.6 4.78 4.78 0 0 1-.76-2.64h2.98a2.12 2.12 0 0 0 1.42 1.96 4 4 0 0 0 1.43.24c.52 0 .97-.08 1.35-.23.4-.15.7-.36.9-.63.22-.27.32-.58.32-.93 0-.33-.1-.6-.29-.83a2.2 2.2 0 0 0-.83-.56c-.37-.16-.82-.3-1.35-.43l-1.58-.4a6.64 6.64 0 0 1-2.9-1.4 3.25 3.25 0 0 1-1.06-2.56c0-.88.23-1.65.7-2.3a4.74 4.74 0 0 1 1.97-1.55 6.94 6.94 0 0 1 2.84-.55c1.08 0 2.02.18 2.83.55.8.37 1.43.88 1.88 1.54.45.66.69 1.42.7 2.29H142Zm20.41 11.25a.8.8 0 0 1 .24-.41c.12-.11.2-.12.24-.03.04.08.16.09.24 0 .05-.03.1-.05.17-.05a4.4 4.4 0 0 0 1.19-.2c.16-.04.44-.19.47-.25.01-.03.04-.06.05-.06.01 0 .03-.03.04-.07l.02-.07.22.02a4.37 4.37 0 0 1 .71.12c.02.02.11.03.34.03.13 0 .22.01.22.03l.01.02c.02 0 .04-.03.06-.06.04-.06.14-.07.2-.02.03.02.06.08.07.13.02.06.05.1.11.13.18.09.4.05.4-.07 0-.03 0-.06.03-.06.04 0 .24.07.34.12l.13.03.12.04.08.04-.02-.07c-.05-.22-.26-.39-.58-.49a.33.33 0 0 1-.13-.08c-.04-.05-.07-.06-.13-.05-.06.02-.08 0-.1-.02-.02-.06-.06-.06-.12 0-.04.04-.04.04-.09-.02-.04-.05-.05-.05-.12-.03-.06.03-.08.02-.1 0-.02-.04-.07-.05-.2-.04-.27 0-.7-.07-.72-.13a.05.05 0 0 0-.05-.03c-.04 0-.07-.1-.04-.14.02-.02.03-.07.03-.13s.02-.1.05-.14a.18.18 0 0 0 .06-.11c0-.04.05-.2.13-.35.07-.16.14-.34.15-.4.02-.08.09-.22.16-.32s.13-.2.13-.22c0-.03.44-.9.58-1.13.18-.32.37-.6.52-.74.08-.08.17-.2.21-.3.08-.16.08-.17.23-.2.13-.03.15-.03.19.01.03.05.03.05.02 0-.01-.05.03-.04.1.01.02.03.06.04.09.05.02 0 .06 0 .09.02.04.01.04 0 .03-.03-.02-.04-.01-.04.02-.03.07.03.05-.03-.02-.07-.07-.03-.07-.03.1-.05.12 0 .17-.03.21-.07.2-.2.64-.48.73-.45l.3.1c.13.05.28.09.35.09.11 0 .15 0 .36.1a9.13 9.13 0 0 0 .7.27c.18.08.42.15.43.13.01-.02.07-.02.17 0 .12.02.15.02.17 0 .02-.04.08-.01.33.1.16.1.3.16.3.15.02 0-.06-.06-.16-.13a4.46 4.46 0 0 1-.63-.45c0-.03.12 0 .3.09l.26.12a42.92 42.92 0 0 1 1.59.79s-.11-.1-.26-.2l-.27-.2c0-.02.19.07.3.13a11.56 11.56 0 0 0 .49.24l-.91-.66-.71-.52.02-.01c.04 0 .66.34 1.44.79.46.26.5.28.5.27 0-.02-.45-.34-1-.72a5.3 5.3 0 0 1-.85-.62c.01-.02.31.12.47.22a27.03 27.03 0 0 0 .92.52l-.46-.34-.78-.56-.07-.05h.08c.04 0 .12.03.19.06.12.07.22.08.2.03a73.46 73.46 0 0 0-.4-.32c-.21-.15-.21-.15-.1-.13.14.03.12-.04-.04-.17-.2-.17-.62-.58-.62-.62 0-.04.18-.08.49-.11.37-.04.8-.12 1.17-.21.32-.09.56-.14.96-.18.28-.04.74-.13 1-.22.19-.05.61-.12.77-.12l.48.06a39 39 0 0 0 1.44.26 8.97 8.97 0 0 0 2.7.6c.04-.01.08-.02.09-.04 0-.03.06-.02.24.01.23.05.3.03.25-.04a.65.65 0 0 0-.19-.1.8.8 0 0 1-.15-.07h.1a18.65 18.65 0 0 0 1.46.14c.1-.02.07-.06-.05-.08a2.58 2.58 0 0 1-.55-.17c0-.02.05-.02.1-.01.31.03.5.04.48.01a17.1 17.1 0 0 0-2.05-.6c-.25-.07-.68-.17-1.13-.26l-1.2-.26-2.12-.45a9.98 9.98 0 0 1-2.39-.76h-.02c-.06 0-.4-.13-.35-.15.02 0 0-.03-.04-.05-.05-.03-.09-.04-.12-.02-.1.04-.34-.1-1.82-.98a.74.74 0 0 1-.15-.1c-.01-.03-.02-.03-.02-.01l-.05-.02-.17-.11a.73.73 0 0 1-.15-.1l-.04-.03c-.09 0-1.81-1.1-2.34-1.5-.2-.15-2.6-1.75-3.3-2.2a31.02 31.02 0 0 0-2.77-1.59 8.86 8.86 0 0 1-2.27-2.16c0-.05-.56-.73-.86-1.04a4.26 4.26 0 0 0-1.66-1.09 3.04 3.04 0 0 0-1.53-.22c-.39.05-.6.1-.84.2-.25.1-.27.1-.1-.02.1-.05.15-.1.15-.1-.01-.01-.09.02-.17.06-.17.1-.2.1-.17.06.04-.07-.2.08-.64.41l-.6.45-.12.08-.6-.02a5.7 5.7 0 0 0-1.63.12c-.26.07-.3.1-.64.32-.01 0-.01.04 0 .07.02.08.08.1 1.48.49 1.36.38 1.26.33 1.5.61l.23.24c.12.11.17.18.2.3l.08.16c.04.02.2.38.21.49.02.12.15.4.22.47.17.15.21.21.27.37.12.3.13.5.15 2.41a54.72 54.72 0 0 0 .09 2.55c.01.19.03.3.16.76l.18.69c.02.1.07.24.11.32l.22.45.15.3c.02.01.07.1.22.36.04.08.15.2.23.29a9.53 9.53 0 0 0 .82.74 3.16 3.16 0 0 0 .52.49l.1.07c.05.03.15.1.21.17.22.2.73.57.8.57l.16.1.16.1c.01 0 .06.04.1.09l.09.07.05.03c.21.17.45.35.53.38.08.03.24.04.24.02s-.01-.04-.03-.04c-.02 0-.02-.02-.01-.03h.06l.06.02.12.08.23.1c.07 0 .14.03.17.04a4.11 4.11 0 0 0 .8.32c.16.07 1.36.34 1.54.34.31 0 .32.05.08.48a16.67 16.67 0 0 0-.44.8 2.92 2.92 0 0 1-.17.28l-.12.18-.2.35c-.02 0-.06.07-.1.14l-.15.23a.37.37 0 0 0-.07.13c0 .02-.05.08-.12.14-.09.08-.12.12-.13.21-.01.11-.04.15-.15.2a.13.13 0 0 0-.06.1c0 .04-.03.09-.06.1-.04.02-.05.05-.04.1l-.01.06c-.02 0-.04.02-.05.04-.02.05-.1.13-.3.36a.52.52 0 0 1-.2.13c-.04.01-.07.03-.07.04 0 .02-.02.03-.05.03a.26.26 0 0 0-.1.05.52.52 0 0 1-.23.06c-.2.02-.32.04-.4.08h-.26a1 1 0 0 0-.24-.02c-.01 0-.04 0-.07-.02-.04-.02-.06-.03-.09 0-.01.01-.06.02-.1.01-.08 0-.1 0-.14.06-.02.04-.05.06-.06.06-.02-.03-.28.06-.38.13-.12.08-.35.32-.34.35.03.05.13.02.23-.07a.9.9 0 0 1 .4-.2c.02 0 .06.04.1.08.04.1.11.1.13.03.02-.06.04-.07.08-.03.02.02.07.02.17 0 .18-.03.52-.04.5-.02a1.18 1.18 0 0 1-.54.2c-.06.03-.05.03.09.04l.25.03c.16.02.2.01.26-.03.12-.08.27-.09.35-.03.06.04.08.05.16.01a.4.4 0 0 0 .14-.1.48.48 0 0 1 .19-.11.74.74 0 0 0 .18-.08c.07-.06.1-.04.08.07 0 .08-.02.11-.08.13-.06.03-.06.03-.01.04l.1.03a.7.7 0 0 0 .13.04c.13.02.22.07.22.1 0 .06 0 .06.11 0a.7.7 0 0 1 .18-.07.35.35 0 0 0 .13-.06c.03-.03.07-.03.15-.02.12.02.12.02.07.17-.04.12-.06.42-.02.42.01 0 .04-.05.05-.12Zm-.6-.76c-.03.02-.04.02-.04 0 0-.04.07-.08.13-.08.1 0 .13 0 .13-.06 0-.08.11-.18.2-.18.06 0 .08-.02.09-.05.01-.05.03-.05.07-.04l.19-.01c.09-.02.12-.02.12 0s0 .02.02 0c.03-.03.06-.03.66-.05.48-.01.54-.01.54.03 0 .02-.03.04-.08.05a.5.5 0 0 0-.14.05l-.3.1a.74.74 0 0 0-.25.1c0 .02-.05.02-.13.01-.07-.01-.11 0-.11.01 0 .03-.1.06-.28.07l-.3.03-.25-.01c-.07-.02-.1-.02-.14 0-.03.03-.07.03-.08.02h-.06Zm-.22-.1c0-.02.04-.08.1-.15l.12-.17c.02-.03.04-.04.06-.02.03.03.01.06-.04.16a.78.78 0 0 1-.11.16c-.05.04-.13.04-.13.01Zm2.66-.77a1.18 1.18 0 0 1-.33-.1c-.08-.05-.3-.03-.5.02a.93.93 0 0 1-.55.01c-.1-.02-.17-.1-.17-.19 0-.04 0-.05-.03-.04-.02.02-.02 0 0-.03.04-.12.05-.2.03-.2-.02-.02-.02-.04.01-.06.02-.01.06-.1.08-.2.04-.16.2-.5.25-.53a.3.3 0 0 0 .05-.11.74.74 0 0 1 .1-.19l.18-.29.5-.84.25-.43c.08-.13.17-.26.22-.3.07-.06.08-.07.15-.03.05.03.07.03.09 0 0-.01.02-.02.03 0 .01 0 .04 0 .05-.02.03-.02.05-.01.08.02.02.02.06.04.08.03.02-.01.04 0 .04.01 0 .03 0 .03.02 0 .01-.02.07-.03.16-.03.24 0 .56-.02.61-.06a.7.7 0 0 1 .2-.02c.09 0 .23-.02.3-.04.25-.06.4-.07.44-.03.04.03.04.15 0 .2a5.1 5.1 0 0 1-.33.68l-.13.27-.1.2a4.62 4.62 0 0 1-.46.87c0 .04-.03.09-.06.12l-.1.19c-.05.09-.08.12-.11.1-.04 0-.05.02-.07.11a.57.57 0 0 1-.05.17l-.03.09c.03.04-.02.12-.12.18-.05.03-.1.08-.1.11 0 .04-.03.06-.1.08-.1.02-.1.02-.12.15 0 .19-.09.2-.46.13Zm9.62-8.94-.04-.03-.03.01c.02.03.07.04.07.02ZM59.81 32.73h.67v4.81a2.49 2.49 0 0 1-1.32 2.25c-.41.22-.9.33-1.44.33-.54 0-1.02-.1-1.44-.33a2.49 2.49 0 0 1-1.31-2.25v-4.81h.66v4.77c0 .38.09.73.26 1.03.17.3.41.54.73.71.31.17.68.26 1.1.26.42 0 .8-.09 1.1-.26.32-.17.56-.41.73-.71.18-.3.26-.65.26-1.03v-4.77ZM61.88 40v-5.45h.61v.83h.05c.1-.27.3-.5.56-.66a1.7 1.7 0 0 1 1.1-.25h.16v.65a5.67 5.67 0 0 0-.38-.04c-.28 0-.54.06-.76.18a1.34 1.34 0 0 0-.71 1.22V40h-.63Zm5.2.11c-.5 0-.95-.11-1.32-.35a2.38 2.38 0 0 1-.86-1c-.2-.42-.3-.9-.3-1.46 0-.54.1-1.03.3-1.46.2-.43.48-.76.84-1a2.3 2.3 0 0 1 2.1-.2 2.26 2.26 0 0 1 1.26 1.32c.13.34.2.73.2 1.19v.31h-4.27v-.56h3.62c0-.35-.08-.66-.22-.94a1.54 1.54 0 0 0-1.45-.91c-.34 0-.65.09-.9.27a1.9 1.9 0 0 0-.63.73c-.14.3-.22.64-.22 1v.33c0 .44.07.81.22 1.14a1.73 1.73 0 0 0 1.63 1.01c.26 0 .48-.04.68-.12a1.45 1.45 0 0 0 .8-.77l.6.2a2.05 2.05 0 0 1-1.11 1.1c-.28.12-.6.17-.97.17Zm5.17 0c-.45 0-.84-.11-1.18-.35-.33-.24-.6-.57-.79-1A3.64 3.64 0 0 1 70 37.3c0-.56.1-1.06.28-1.48.2-.42.46-.75.8-.98.34-.24.73-.36 1.18-.36.33 0 .6.06.83.18.22.11.4.26.53.43.13.17.23.34.3.5h.06v-2.85h.64V40H74v-1.01h-.08c-.07.16-.17.33-.3.5a1.65 1.65 0 0 1-1.37.62Zm.07-.58c.36 0 .66-.1.9-.28.25-.2.44-.46.57-.8.14-.34.2-.73.2-1.17a3 3 0 0 0-.2-1.16 1.7 1.7 0 0 0-.56-.79 1.44 1.44 0 0 0-.9-.28c-.37 0-.68.1-.93.3-.25.2-.44.46-.57.8-.13.33-.19.7-.19 1.13 0 .42.07.8.2 1.14.13.34.31.62.56.82.25.2.56.3.92.3Zm.15-5.52v-.52h2.99v.52h-2.99Zm5.75 6.1c-.5 0-.95-.11-1.32-.35a2.38 2.38 0 0 1-.86-1c-.2-.42-.3-.9-.3-1.46 0-.54.1-1.03.3-1.46.2-.43.48-.76.84-1a2.3 2.3 0 0 1 2.1-.2 2.26 2.26 0 0 1 1.26 1.32c.13.34.2.73.2 1.19v.31h-4.27v-.56h3.62c0-.35-.07-.66-.21-.94-.14-.28-.34-.5-.59-.67a1.53 1.53 0 0 0-.86-.24c-.35 0-.65.09-.92.27a1.9 1.9 0 0 0-.61.73c-.15.3-.22.64-.23 1v.33c0 .44.08.81.23 1.14.15.32.36.57.64.75.28.18.6.26.98.26.26 0 .49-.04.68-.12a1.45 1.45 0 0 0 .8-.77l.6.2c-.08.22-.22.44-.4.63a2.2 2.2 0 0 1-1.68.64Zm3.84-3.52V40h-.63v-5.45h.61v.85h.06c.13-.28.33-.5.6-.67.27-.17.6-.26 1-.26.37 0 .7.08.97.24.28.15.5.37.65.67.16.3.23.66.23 1.09V40h-.63v-3.5c0-.44-.12-.8-.37-1.06s-.59-.39-1-.39c-.3 0-.55.06-.77.19-.22.12-.4.3-.53.53-.13.23-.19.5-.19.82Zm4.77-2.04h.63v5.98c0 .3-.06.58-.17.8-.12.23-.28.4-.5.53-.22.12-.48.19-.79.19h-.15l.01-.6H86c.26 0 .46-.08.6-.24a.97.97 0 0 0 .23-.68v-5.98Zm.3-.94a.48.48 0 0 1-.32-.13.44.44 0 0 1-.14-.33c0-.12.04-.23.14-.32.09-.09.2-.13.33-.13s.24.04.33.13c.1.1.14.2.14.32 0 .13-.04.24-.14.33a.49.49 0 0 1-.33.13Zm3.8 6.5c-.5 0-.94-.11-1.31-.35a2.38 2.38 0 0 1-.87-1c-.2-.42-.3-.9-.3-1.46 0-.54.1-1.03.3-1.46.2-.43.49-.76.85-1a2.3 2.3 0 0 1 2.1-.2 2.26 2.26 0 0 1 1.26 1.32c.13.34.2.73.2 1.19v.31h-4.27v-.56h3.61c0-.35-.07-.66-.2-.94-.15-.28-.34-.5-.6-.67a1.53 1.53 0 0 0-.86-.24c-.34 0-.65.09-.91.27a1.9 1.9 0 0 0-.62.73c-.14.3-.22.64-.22 1v.33c0 .44.07.81.22 1.14a1.73 1.73 0 0 0 1.63 1.01c.26 0 .48-.04.68-.12a1.45 1.45 0 0 0 .8-.77l.6.2a2.05 2.05 0 0 1-1.11 1.1c-.28.12-.6.17-.97.17Zm7.75 0c-.47 0-.9-.12-1.25-.35a2.43 2.43 0 0 1-.85-1c-.2-.42-.3-.9-.3-1.46 0-.56.1-1.05.3-1.48.2-.42.49-.75.85-.99s.78-.36 1.25-.36.88.12 1.24.36.64.57.85 1c.2.42.3.9.3 1.47 0 .55-.1 1.04-.3 1.46-.2.43-.48.76-.85 1a2.2 2.2 0 0 1-1.24.35Zm0-.58c.38 0 .7-.1.96-.3.26-.2.46-.48.6-.81a3.14 3.14 0 0 0 0-2.24 1.91 1.91 0 0 0-.6-.82c-.26-.21-.58-.31-.96-.31s-.7.1-.97.3c-.26.21-.46.48-.6.83a3.14 3.14 0 0 0 0 2.24c.14.33.34.6.6.8.27.21.59.31.97.31Zm3.96-1.59v-.83h.14l2.55-2.56h.8l-2.52 2.52-.06.01-.91.86Zm-.58 2.06v-7.27h.64V40h-.64Zm3.4 0-2.21-2.8.45-.44 2.57 3.24h-.8Zm4.93-2.08v-3.37h.63V40h-.63v-.9h-.06a1.68 1.68 0 0 1-1.62.97c-.35 0-.65-.07-.92-.23a1.6 1.6 0 0 1-.64-.67c-.15-.3-.23-.66-.23-1.1v-3.52h.63v3.49c0 .43.13.77.38 1.03s.57.39.96.39a1.52 1.52 0 0 0 1.28-.7c.14-.23.22-.51.22-.84Zm4.03 2.2a2.23 2.23 0 0 1-2.11-1.37c-.2-.43-.3-.91-.3-1.45 0-.55.1-1.04.3-1.46.2-.43.49-.76.85-1 .36-.25.78-.37 1.25-.37.37 0 .7.07 1 .21a1.93 1.93 0 0 1 1.09 1.48h-.64a1.41 1.41 0 0 0-1.44-1.11c-.35 0-.66.1-.92.28-.27.19-.48.45-.63.79a2.8 2.8 0 0 0-.23 1.16c0 .44.08.83.23 1.17.14.34.35.6.61.8.27.19.58.28.94.28.24 0 .46-.04.66-.13a1.37 1.37 0 0 0 .78-1h.64a1.95 1.95 0 0 1-1.07 1.5c-.3.14-.63.21-1 .21Zm-.33-6.33.9-1.61h.76l-1.1 1.6h-.56Zm4 2.8V40h-.63v-5.45h.61v.85h.06c.13-.28.33-.5.6-.67.27-.17.6-.26 1-.26.37 0 .7.08.97.24.28.15.5.37.65.67.16.3.23.66.23 1.09V40h-.63v-3.5c0-.44-.12-.8-.38-1.06a1.3 1.3 0 0 0-1-.39c-.28 0-.54.06-.76.19-.22.12-.4.3-.53.53-.13.23-.2.5-.2.82Zm4.77 3.41v-5.45h.63V40h-.63Zm.32-6.4a.47.47 0 0 1-.34-.12.44.44 0 0 1-.13-.33c0-.12.04-.23.13-.32.1-.09.2-.13.34-.13.13 0 .24.04.33.13.1.1.14.2.14.32 0 .13-.05.24-.14.33a.49.49 0 0 1-.33.13Zm3.71 6.51a2.23 2.23 0 0 1-2.11-1.36c-.2-.43-.3-.91-.3-1.45 0-.55.1-1.04.3-1.46.2-.43.49-.76.85-1 .36-.25.78-.37 1.25-.37.37 0 .7.07 1 .21a1.93 1.93 0 0 1 1.09 1.48h-.64a1.41 1.41 0 0 0-1.44-1.11c-.34 0-.65.1-.92.28-.27.19-.48.45-.63.79a2.8 2.8 0 0 0-.22 1.16c0 .44.07.83.22 1.17.14.34.35.6.61.8.27.19.58.28.94.28.24 0 .47-.04.66-.13a1.37 1.37 0 0 0 .79-1h.63a1.95 1.95 0 0 1-1.07 1.5c-.3.14-.63.21-1 .21Zm4.56.01a2.1 2.1 0 0 1-.9-.19 1.58 1.58 0 0 1-.65-.56 1.6 1.6 0 0 1-.24-.9c0-.26.05-.5.15-.68.1-.18.25-.33.44-.45.18-.12.4-.21.66-.28.25-.07.54-.12.84-.16l.78-.1c.21-.03.37-.07.48-.13a.32.32 0 0 0 .17-.3v-.13c0-.37-.11-.66-.33-.88a1.33 1.33 0 0 0-.95-.32c-.4 0-.72.09-.97.26-.24.17-.42.37-.52.6l-.6-.2a1.86 1.86 0 0 1 1.25-1.11 2.85 2.85 0 0 1 1.47-.04c.22.06.44.15.63.29.2.13.35.32.47.55a2 2 0 0 1 .18.9V40h-.63v-.86h-.04a1.7 1.7 0 0 1-.9.84c-.22.1-.49.14-.79.14Zm.09-.57c.33 0 .63-.08.87-.23.25-.15.44-.35.57-.6.13-.24.2-.51.2-.81v-.79a.62.62 0 0 1-.24.12 3.3 3.3 0 0 1-.8.16l-.39.05c-.3.04-.57.1-.78.18-.22.08-.39.2-.5.34a.82.82 0 0 0-.18.54c0 .33.12.58.36.77.23.18.53.27.89.27Zm5.97.45v-5.45h.64V40h-.64Zm.33-6.4a.47.47 0 0 1-.34-.12.44.44 0 0 1-.13-.33c0-.12.04-.23.13-.32.1-.09.2-.13.34-.13.13 0 .24.04.33.13.1.1.14.2.14.32 0 .13-.05.24-.14.33a.5.5 0 0 1-.33.13Zm8.22.95-2 5.45h-.67l-2-5.45h.7l1.61 4.62h.05l1.62-4.62h.69Zm.84 5.45v-5.45h.64V40h-.64Zm.32-6.4a.47.47 0 0 1-.33-.12.44.44 0 0 1-.14-.33.46.46 0 0 1 .47-.45c.13 0 .25.04.34.13.09.1.14.2.14.32 0 .13-.05.24-.14.33-.1.08-.2.13-.34.13Zm2.16 4.34v-.83h.14l2.55-2.56h.8l-2.52 2.52-.06.01-.9.86Zm-.57 2.06v-7.27h.63V40h-.63Zm3.4 0-2.22-2.8.45-.44 2.58 3.24h-.81Zm3.43.11c-.5 0-.95-.11-1.32-.35a2.38 2.38 0 0 1-.86-1c-.2-.42-.3-.9-.3-1.46 0-.54.1-1.03.3-1.46.2-.43.48-.76.84-1a2.3 2.3 0 0 1 2.1-.2 2.26 2.26 0 0 1 1.26 1.32c.13.34.2.73.2 1.19v.31h-4.27v-.56h3.62c0-.35-.07-.66-.22-.94a1.54 1.54 0 0 0-1.45-.91c-.34 0-.64.09-.9.27a1.9 1.9 0 0 0-.62.73c-.15.3-.23.64-.23 1v.33c0 .44.08.81.23 1.14.15.32.36.57.64.75.28.18.6.26.98.26.26 0 .49-.04.68-.12a1.45 1.45 0 0 0 .8-.77l.6.2c-.08.22-.22.44-.4.63a2.2 2.2 0 0 1-1.68.64Zm3.84-3.52V40h-.63v-5.45h.61v.85h.06c.13-.28.33-.5.6-.67.27-.17.6-.26 1-.26.37 0 .7.08.97.24.28.15.5.37.65.67.16.3.23.66.23 1.09V40h-.63v-3.5c0-.44-.12-.8-.37-1.06s-.59-.39-1-.39c-.3 0-.55.06-.77.19-.22.12-.4.3-.53.53-.13.23-.19.5-.19.82Zm6.72 3.52c-.44 0-.84-.11-1.17-.35-.34-.24-.6-.57-.8-1a3.64 3.64 0 0 1-.27-1.47c0-.56.1-1.06.28-1.48.19-.42.45-.75.8-.98a2 2 0 0 1 1.17-.36c.33 0 .61.06.83.18.22.11.4.26.53.43.13.17.24.34.3.5h.07v-2.85h.63V40h-.62v-1.01h-.07c-.07.16-.18.33-.31.5a1.65 1.65 0 0 1-1.37.62Zm.08-.58c.35 0 .65-.1.9-.28.25-.2.44-.46.57-.8.13-.34.2-.73.2-1.17 0-.44-.07-.82-.2-1.16a1.8 1.8 0 0 0-.57-.79 1.44 1.44 0 0 0-.9-.28c-.37 0-.68.1-.93.3-.25.2-.43.46-.56.8-.13.33-.2.7-.2 1.13 0 .42.07.8.2 1.14.13.34.32.62.57.82.25.2.55.3.92.3Zm3.7.47v-5.45h.63V40h-.63Zm.32-6.4a.47.47 0 0 1-.33-.12.44.44 0 0 1-.14-.33c0-.12.05-.23.14-.32.09-.09.2-.13.33-.13s.24.04.34.13c.09.1.13.2.13.32 0 .13-.04.24-.13.33-.1.08-.2.13-.34.13Zm3.72 6.51a2.23 2.23 0 0 1-2.12-1.36c-.2-.43-.3-.91-.3-1.45 0-.55.1-1.04.3-1.46.21-.43.5-.76.85-1 .36-.25.78-.37 1.26-.37.36 0 .7.07.99.21a1.92 1.92 0 0 1 1.1 1.48h-.64a1.41 1.41 0 0 0-1.44-1.11c-.35 0-.66.1-.93.28-.26.19-.47.45-.63.79-.14.33-.22.72-.22 1.16 0 .44.07.83.22 1.17.15.34.35.6.62.8.27.19.58.28.94.28.24 0 .46-.04.66-.13a1.37 1.37 0 0 0 .78-1h.64a1.96 1.96 0 0 1-1.07 1.5c-.3.14-.63.21-1.01.21Zm4.56.01a2.1 2.1 0 0 1-.9-.19 1.58 1.58 0 0 1-.66-.56 1.6 1.6 0 0 1-.24-.9 1.25 1.25 0 0 1 .59-1.14c.19-.1.4-.2.66-.27s.54-.12.85-.16l.77-.1c.22-.03.38-.07.49-.13a.34.34 0 0 0 .17-.3v-.13c0-.37-.12-.66-.34-.88a1.33 1.33 0 0 0-.95-.32c-.4 0-.71.09-.96.26s-.42.37-.52.6l-.6-.2a1.84 1.84 0 0 1 1.24-1.11 2.85 2.85 0 0 1 1.47-.04c.23.06.44.15.63.29.2.13.36.32.48.55a2 2 0 0 1 .18.9V40h-.63v-.86h-.04a1.7 1.7 0 0 1-.9.84 2 2 0 0 1-.8.14Zm.08-.57a1.54 1.54 0 0 0 1.44-.83c.14-.24.2-.51.2-.81v-.79a.62.62 0 0 1-.23.12 8.72 8.72 0 0 1-1.19.21c-.31.04-.57.1-.8.18-.2.08-.38.2-.5.34a.82.82 0 0 0-.17.54c0 .33.12.58.36.77.24.18.53.27.9.27Z" fill="#313131"/>
</svg>