<svg width="113" height="114" viewBox="0 0 113 114" fill="none" xmlns="http://www.w3.org/2000/svg">
<g clip-path="url(#clip0_54_67)">
<path d="M74.1562 3.5625C75.2156 3.5625 75.9219 2.85 75.9219 1.78125C75.9219 0.7125 75.2156 0 74.1562 0H70.625C69.5656 0 68.8594 0.7125 68.8594 1.78125C68.8594 2.85 69.5656 3.5625 70.625 3.5625H74.1562Z" fill="#313131"/>
<path d="M45.9062 46.3125C44.8469 46.3125 44.1406 47.025 44.1406 48.0938C44.1406 49.1625 44.8469 49.875 45.9062 49.875H47.6719C48.7313 49.875 49.4375 49.1625 49.4375 48.0938C49.4375 47.025 48.7313 46.3125 47.6719 46.3125H45.9062Z" fill="#313131"/>
<path d="M52.9688 46.3125C51.9094 46.3125 51.2031 47.025 51.2031 48.0938C51.2031 49.1625 51.9094 49.875 52.9688 49.875H54.7344C55.7938 49.875 56.5 49.1625 56.5 48.0938C56.5 47.025 55.7938 46.3125 54.7344 46.3125H52.9688Z" fill="#313131"/>
<path d="M38.8438 46.3125C37.7844 46.3125 37.0781 47.025 37.0781 48.0938C37.0781 49.1625 37.7844 49.875 38.8438 49.875H40.6094C41.6688 49.875 42.375 49.1625 42.375 48.0938C42.375 47.025 41.6688 46.3125 40.6094 46.3125H38.8438Z" fill="#313131"/>
<path d="M33.5469 10.6875H21.7172C9.71094 10.6875 0 20.4844 0 32.5969V42.2156C0 54.3281 9.71094 64.125 21.5406 64.125H24.7188C25.6016 64.125 26.4844 63.4125 26.4844 62.3438C26.4844 61.275 25.7781 60.5625 24.7188 60.5625H21.5406C11.6531 60.5625 3.53125 52.3687 3.53125 42.3937V32.775C3.53125 22.4437 11.6531 14.25 21.7172 14.25H33.5469C34.6063 14.25 35.3125 13.5375 35.3125 12.4688C35.3125 11.4 34.6063 10.6875 33.5469 10.6875Z" fill="#313131"/>
<path d="M41.139 14.25C41.8452 14.25 42.3749 13.8938 42.728 13.3594C45.9061 7.30312 52.0858 3.5625 58.7952 3.5625H63.5624C64.6218 3.5625 65.328 2.85 65.328 1.78125C65.328 0.7125 64.6218 0 63.5624 0H58.7952C50.6733 0 43.4343 4.45312 39.5499 11.5781C39.0202 12.4688 39.3733 13.5375 40.2561 14.0719C40.6093 14.25 40.9624 14.25 41.139 14.25Z" fill="#313131"/>
<path d="M91.2828 0H81.2187C80.1593 0 79.4531 0.7125 79.4531 1.78125C79.4531 2.85 80.1593 3.5625 81.2187 3.5625H91.2828C101.347 3.5625 109.469 11.7563 109.469 21.9094V31.5281C109.469 41.6813 101.347 49.875 91.4593 49.875H86.5156L86.6921 57.5344L78.7468 53.4375C77.864 53.0813 76.8046 53.4375 76.4515 54.15C76.0984 54.8625 76.4515 56.1094 77.1578 56.4656L90.4 63.0563L90.2234 53.0813H91.6359C103.289 53.4375 113 43.6406 113 31.7063V22.0875C113 9.79688 103.289 0 91.2828 0Z" fill="#313131"/>
<path d="M65.3281 37.4062C65.3281 36.3375 64.6219 35.625 63.5625 35.625H15.8906C14.8312 35.625 14.125 36.3375 14.125 37.4062C14.125 38.475 14.8312 39.1875 15.8906 39.1875H63.5625C64.6219 39.1875 65.3281 38.475 65.3281 37.4062Z" fill="#313131"/>
<path d="M33.5469 48.0938C33.5469 47.025 32.8406 46.3125 31.7812 46.3125H15.8906C14.8312 46.3125 14.125 47.025 14.125 48.0938C14.125 49.1625 14.8312 49.875 15.8906 49.875H31.7812C32.8406 49.875 33.5469 49.1625 33.5469 48.0938Z" fill="#313131"/>
<path d="M14.125 26.7188C14.125 27.7875 14.8312 28.5 15.8906 28.5H63.5625C64.6219 28.5 65.3281 27.7875 65.3281 26.7188C65.3281 25.65 64.6219 24.9375 63.5625 24.9375H15.8906C14.8312 24.9375 14.125 25.65 14.125 26.7188Z" fill="#313131"/>
<path d="M104.172 26.7188C104.172 25.65 103.466 24.9375 102.406 24.9375H82.9844C81.925 24.9375 81.2188 25.65 81.2188 26.7188C81.2188 27.7875 81.925 28.5 82.9844 28.5H102.406C103.466 28.5 104.172 27.7875 104.172 26.7188Z" fill="#313131"/>
<path d="M82.9844 35.625C81.925 35.625 81.2188 36.3375 81.2188 37.4062C81.2188 38.475 81.925 39.1875 82.9844 39.1875H97.1094C98.1688 39.1875 98.875 38.475 98.875 37.4062C98.875 36.3375 98.1688 35.625 97.1094 35.625H82.9844Z" fill="#313131"/>
<path d="M102.406 14.25H77.6875C76.6281 14.25 75.9219 14.9625 75.9219 16.0312C75.9219 17.1 76.6281 17.8125 77.6875 17.8125H102.406C103.466 17.8125 104.172 17.1 104.172 16.0312C104.172 14.9625 103.466 14.25 102.406 14.25Z" fill="#313131"/>
<path d="M93.5781 112.219C93.5781 113.287 94.2844 114 95.3438 114C96.4031 114 97.1094 113.287 97.1094 112.219V94.4062C97.1094 93.3375 96.4031 92.625 95.3438 92.625C94.2844 92.625 93.5781 93.3375 93.5781 94.4062V112.219Z" fill="#313131"/>
<path d="M95.3438 89.0625C96.4031 89.0625 97.1094 88.35 97.1094 87.2812V85.5C97.1094 84.4312 96.4031 83.7188 95.3438 83.7188C94.2844 83.7188 93.5781 84.4312 93.5781 85.5V87.2812C93.5781 88.35 94.2844 89.0625 95.3438 89.0625Z" fill="#313131"/>
<path d="M84.0438 64.125C78.0407 63.9469 72.9204 67.1531 70.8017 72.3187C70.6251 72.4968 70.6251 72.8531 70.6251 73.0312V83.5406L65.6813 91.7344C65.3282 92.2687 65.3282 92.9812 65.6813 93.5156C66.0345 94.05 66.5642 94.4062 67.0938 94.4062H70.6251V101.531C70.6251 104.737 72.7438 106.875 75.922 106.875H81.2188V112.219C81.2188 113.287 81.9251 114 82.9845 114C84.0438 114 84.7501 113.287 84.7501 112.219V105.094C84.7501 104.025 84.0438 103.312 82.9845 103.312H75.922C74.686 103.312 74.1563 102.778 74.1563 101.531V92.8031C74.1563 91.9125 73.4501 91.0218 72.3907 91.0218H70.272L73.9798 85.1437C74.1564 84.7875 74.1563 84.6094 74.1563 84.2531V73.5656C75.922 69.825 79.4532 67.6875 83.8673 67.8656C87.9282 67.8656 91.9892 70.7156 93.5782 74.6344V78.375C93.5782 79.4437 94.2845 80.1562 95.3438 80.1562C96.4032 80.1562 97.1095 79.4437 97.1095 78.375V74.1C97.1095 73.9218 97.1095 73.7437 96.9329 73.3875C94.9907 68.0437 89.5173 64.3031 84.0438 64.125Z" fill="#313131"/>
<path d="M79.4531 83.7188C80.4283 83.7188 81.2188 82.9213 81.2188 81.9375C81.2188 80.9537 80.4283 80.1562 79.4531 80.1562C78.478 80.1562 77.6875 80.9537 77.6875 81.9375C77.6875 82.9213 78.478 83.7188 79.4531 83.7188Z" fill="#313131"/>
<path d="M30.0156 105.094V112.219C30.0156 113.287 30.7219 114 31.7812 114C32.8406 114 33.5469 113.287 33.5469 112.219V106.875H38.8438C42.0219 106.875 44.1406 104.737 44.1406 101.531V94.4062H47.6719C48.3781 94.4062 48.9078 94.05 49.2609 93.5156C49.6141 92.9812 49.6141 92.2687 49.2609 91.7344L44.1406 83.5406V73.0312C44.1406 71.9625 43.4344 71.25 42.375 71.25C41.3156 71.25 40.6094 71.9625 40.6094 73.0312V84.075C40.6094 84.4313 40.7859 84.7875 40.9625 84.9656L44.6703 90.8437H42.5516C41.6688 90.8437 40.7859 91.7344 40.7859 92.625V101.531C40.7859 102.778 40.2563 103.312 39.0203 103.312H31.7812C30.7219 103.312 30.0156 104.025 30.0156 105.094Z" fill="#313131"/>
<path d="M19.4219 92.625C18.3625 92.625 17.6562 93.3375 17.6562 94.4062V112.219C17.6562 113.287 18.3625 114 19.4219 114C20.4813 114 21.1875 113.287 21.1875 112.219V94.4062C21.1875 93.3375 20.4813 92.625 19.4219 92.625Z" fill="#313131"/>
<path d="M21.1875 85.5C21.1875 84.4312 20.4813 83.7188 19.4219 83.7188C18.3625 83.7188 17.6562 84.4312 17.6562 85.5V87.2812C17.6562 88.35 18.3625 89.0625 19.4219 89.0625C20.4813 89.0625 21.1875 88.35 21.1875 87.2812V85.5Z" fill="#313131"/>
<path d="M21.1875 74.2781C22.7766 70.5375 26.8375 67.6875 30.8984 67.5094C31.9578 67.5094 32.6641 66.6188 32.6641 65.7281C32.6641 64.8375 31.7812 63.9469 30.8984 63.9469C25.2484 64.125 19.9516 67.8656 17.8328 73.2094C17.8328 73.3875 17.6562 73.5656 17.6562 73.9219V78.375C17.6562 79.4438 18.3625 80.1563 19.4219 80.1563C20.4813 80.1563 21.1875 79.4438 21.1875 78.375V74.2781Z" fill="#313131"/>
<path d="M35.3125 83.7188C36.2876 83.7188 37.0781 82.9213 37.0781 81.9375C37.0781 80.9537 36.2876 80.1562 35.3125 80.1562C34.3374 80.1562 33.5469 80.9537 33.5469 81.9375C33.5469 82.9213 34.3374 83.7188 35.3125 83.7188Z" fill="#313131"/>
<path d="M75.9219 32.5969C75.9219 20.4844 66.2109 10.6875 54.2047 10.6875H51.2031C50.1438 10.6875 49.4375 11.4 49.4375 12.4688C49.4375 13.5375 50.1438 14.25 51.2031 14.25H54.2047C64.2688 14.25 72.3906 22.4438 72.3906 32.5969V42.2156C72.3906 47.2031 70.4484 51.8344 67.0938 55.2188C63.7391 58.6031 59.1484 60.5625 54.2047 60.5625H39.9031L28.7797 71.7844C28.0734 72.4969 28.0734 73.5656 28.7797 74.2781C29.1328 74.6344 29.6625 74.8125 30.0156 74.8125C30.3688 74.8125 30.8984 74.6344 31.2516 74.2781L41.3156 64.125H54.0281C59.8547 64.125 65.3281 61.8094 69.3891 57.7125C73.45 53.6156 75.7453 48.0938 75.7453 42.2156L75.9219 32.5969Z" fill="#313131"/>
</g>
<defs>
<clipPath id="clip0_54_67">
<rect width="113" height="114" fill="white"/>
</clipPath>
</defs>
</svg>
