<svg width="113" height="101" viewBox="0 0 113 101" fill="none" xmlns="http://www.w3.org/2000/svg">
<g clip-path="url(#clip0_54_102)">
<path d="M54.8238 95.1737C55.5588 95.1737 56.3126 95.0087 57.0851 94.6787C57.8576 94.3449 58.482 93.9399 58.9582 93.4637L102.811 49.6112C104.224 48.1974 105.314 46.7537 106.079 45.2799C106.848 43.7987 107.232 42.1749 107.232 40.4087C107.232 38.6199 106.848 36.8837 106.079 35.1999C105.314 33.5124 104.224 31.9749 102.811 30.5874L81.717 9.49369C80.3257 8.07994 78.8951 7.04307 77.4251 6.38307C75.9588 5.72307 74.3313 5.39307 72.5426 5.39307C70.7763 5.39307 69.1357 5.72307 67.6207 6.38307C66.1057 7.04307 64.677 8.07994 63.3345 9.49369L58.4407 14.3874L68.847 24.8331C69.9607 25.9281 70.7913 27.1749 71.3388 28.5737C71.8863 29.9724 72.162 31.3937 72.1657 32.8374C72.1657 35.7624 71.2095 38.1831 69.297 40.0993C67.377 42.0118 64.9545 42.9681 62.0295 42.9681C60.5857 42.9681 59.1776 42.7487 57.8051 42.3099C56.4288 41.8712 55.1932 41.1024 54.0982 40.0037L43.3376 29.2824L19.0488 53.5656C18.4788 54.1356 18.0513 54.7824 17.7663 55.5062C17.4813 56.2337 17.3388 56.9649 17.3388 57.6999C17.3388 59.0274 17.7645 60.1224 18.6157 60.9849C19.467 61.8474 20.5564 62.2787 21.8839 62.2787C22.6189 62.2787 23.3726 62.1099 24.1451 61.7724C24.9176 61.4424 25.542 61.0393 26.0182 60.5631L43.8438 42.7374L47.8263 46.7199L30.0288 64.5512C29.4588 65.1174 29.0313 65.7624 28.7463 66.4862C28.4613 67.2137 28.3188 67.9449 28.3188 68.6799C28.3188 69.9324 28.7632 71.0012 29.652 71.8862C30.537 72.7749 31.6076 73.2193 32.8638 73.2193C33.5988 73.2193 34.3526 73.0543 35.1251 72.7243C35.8976 72.3943 36.522 71.9912 36.9982 71.5149L56.1232 52.4181L60.1001 56.4006L41.0088 75.5256C40.5101 76.0018 40.1013 76.6262 39.7826 77.3987C39.4601 78.1712 39.2989 78.9249 39.2989 79.6599C39.2989 80.9124 39.7432 81.9812 40.632 82.8662C41.517 83.7549 42.5876 84.1993 43.8438 84.1993C44.5788 84.1993 45.3101 84.0568 46.0376 83.7718C46.7613 83.4868 47.4082 83.0612 47.9782 82.4949L67.1032 63.3981L71.0801 67.3806L51.9551 86.5056C51.3851 87.0756 50.9576 87.7581 50.6726 88.5531C50.3876 89.3518 50.2451 90.0831 50.2451 90.7468C50.2451 92.0743 50.7138 93.1449 51.6513 93.9587C52.5851 94.7724 53.6426 95.1793 54.8238 95.1793M54.7901 100.804C51.8988 100.804 49.4239 99.7468 47.3651 97.6318C45.3026 95.5131 44.3988 92.9012 44.6538 89.7962C41.4663 89.8337 38.8132 88.8812 36.6945 86.9387C34.572 84.9999 33.5651 82.2924 33.6738 78.8162C30.1976 78.8537 27.4601 77.8599 25.4613 75.8349C23.4588 73.8099 22.5476 71.1437 22.7276 67.8362C19.6001 67.8737 16.9826 66.9924 14.8751 65.1924C12.7676 63.3999 11.7138 60.9024 11.7138 57.6999C11.7138 56.2562 11.9951 54.8124 12.5576 53.3687C13.1164 51.9212 13.9413 50.6499 15.0326 49.5549L43.3376 21.2837L57.8613 35.8074C58.3376 36.3062 58.9263 36.7168 59.6276 37.0393C60.3251 37.3581 61.1126 37.5174 61.9901 37.5174C63.1976 37.5174 64.2626 37.0974 65.1851 36.2574C66.1076 35.4174 66.5688 34.3243 66.5688 32.9781C66.5688 32.0968 66.4095 31.3056 66.0907 30.6043C65.7682 29.9068 65.3595 29.3199 64.8645 28.8437L45.5145 9.49369C44.1195 8.07994 42.6701 7.04307 41.1663 6.38307C39.6663 5.72307 38.0201 5.39307 36.2276 5.39307C34.4613 5.39307 32.8563 5.72307 31.4126 6.38307C29.9726 7.04307 28.5457 8.07994 27.132 9.49369L10.0095 26.6499C8.80197 27.8499 7.82697 29.2843 7.08447 30.9531C6.34197 32.6218 5.94822 34.3412 5.90322 36.1112C5.86572 37.3824 5.97447 38.6031 6.22947 39.7731C6.49197 40.9468 6.90447 42.0493 7.46697 43.0806L3.20322 47.3387C2.25822 45.8349 1.51947 44.1006 0.986974 42.1356C0.450724 40.1668 0.205099 38.1606 0.250099 36.1168C0.295099 33.5631 0.806974 31.1162 1.78572 28.7762C2.76822 26.4324 4.17072 24.3493 5.99322 22.5268L23.0088 5.51119C24.9701 3.57244 27.0457 2.12869 29.2357 1.17994C31.4257 0.238692 33.792 -0.231934 36.3345 -0.231934C38.8845 -0.231934 41.2338 0.240567 43.3826 1.18557C45.5351 2.13057 47.5826 3.57244 49.5251 5.51119L54.4188 10.4106L59.3238 5.51119C61.2851 3.57244 63.342 2.12869 65.4945 1.17994C67.647 0.238692 69.9963 -0.231934 72.5426 -0.231934C75.0888 -0.231934 77.4551 0.240567 79.6413 1.18557C81.8313 2.13057 83.8957 3.57244 85.8345 5.51119L106.788 26.4643C108.73 28.4031 110.226 30.5799 111.276 32.9949C112.33 35.4137 112.857 37.8962 112.857 40.4424C112.857 42.9849 112.332 45.3324 111.282 47.4849C110.228 49.6374 108.73 51.6849 106.788 53.6274L62.9351 97.4462C61.7688 98.6162 60.4976 99.4674 59.1213 99.9999C57.7488 100.532 56.3051 100.799 54.7901 100.799" fill="#313131"/>
</g>
<defs>
<clipPath id="clip0_54_102">
<rect width="113" height="101" fill="white"/>
</clipPath>
</defs>
</svg>
