<svg width="82" height="77" viewBox="0 0 82 77" fill="none" xmlns="http://www.w3.org/2000/svg">
<g clip-path="url(#clip0_54_44)">
<path d="M77.4166 10.3334H69.111V15.4445H76.7777V71.6667H5.22212V15.4445H12.8888V10.3334H4.58323C3.98584 10.3434 3.39626 10.4709 2.84818 10.7088C2.3001 10.9467 1.80424 11.2902 1.38894 11.7197C0.973643 12.1493 0.647029 12.6564 0.427759 13.2122C0.208488 13.768 0.100855 14.3615 0.111008 14.9589V72.1523C0.100855 72.7497 0.208488 73.3432 0.427759 73.899C0.647029 74.4548 0.973643 74.9619 1.38894 75.3915C1.80424 75.821 2.3001 76.1645 2.84818 76.4024C3.39626 76.6403 3.98584 76.7678 4.58323 76.7778H77.4166C78.014 76.7678 78.6035 76.6403 79.1516 76.4024C79.6997 76.1645 80.1956 75.821 80.6109 75.3915C81.0262 74.9619 81.3528 74.4548 81.572 73.899C81.7913 73.3432 81.8989 72.7497 81.8888 72.1523V14.9589C81.8989 14.3615 81.7913 13.768 81.572 13.2122C81.3528 12.6564 81.0262 12.1493 80.6109 11.7197C80.1956 11.2902 79.6997 10.9467 79.1516 10.7088C78.6035 10.4709 78.014 10.3434 77.4166 10.3334Z" fill="#313131"/>
<path d="M15.4443 30.7778H20.5554V35.8889H15.4443V30.7778Z" fill="#313131"/>
<path d="M30.7778 30.7778H35.8889V35.8889H30.7778V30.7778Z" fill="#313131"/>
<path d="M46.1111 30.7778H51.2222V35.8889H46.1111V30.7778Z" fill="#313131"/>
<path d="M61.4443 30.7778H66.5554V35.8889H61.4443V30.7778Z" fill="#313131"/>
<path d="M15.4443 43.5555H20.5554V48.6667H15.4443V43.5555Z" fill="#313131"/>
<path d="M30.7778 43.5555H35.8889V48.6667H30.7778V43.5555Z" fill="#313131"/>
<path d="M46.1111 43.5555H51.2222V48.6667H46.1111V43.5555Z" fill="#313131"/>
<path d="M61.4443 43.5555H66.5554V48.6667H61.4443V43.5555Z" fill="#313131"/>
<path d="M15.4443 56.3334H20.5554V61.4445H15.4443V56.3334Z" fill="#313131"/>
<path d="M30.7778 56.3334H35.8889V61.4445H30.7778V56.3334Z" fill="#313131"/>
<path d="M46.1111 56.3334H51.2222V61.4445H46.1111V56.3334Z" fill="#313131"/>
<path d="M61.4443 56.3334H66.5554V61.4445H61.4443V56.3334Z" fill="#313131"/>
<path d="M20.5556 20.5555C21.2333 20.5555 21.8833 20.2863 22.3626 19.807C22.8419 19.3278 23.1111 18.6777 23.1111 18V2.66664C23.1111 1.98886 22.8419 1.33885 22.3626 0.859589C21.8833 0.380329 21.2333 0.111084 20.5556 0.111084C19.8778 0.111084 19.2278 0.380329 18.7485 0.859589C18.2692 1.33885 18 1.98886 18 2.66664V18C18 18.6777 18.2692 19.3278 18.7485 19.807C19.2278 20.2863 19.8778 20.5555 20.5556 20.5555Z" fill="#313131"/>
<path d="M61.4445 20.5555C62.1222 20.5555 62.7723 20.2863 63.2515 19.807C63.7308 19.3278 64 18.6777 64 18V2.66664C64 1.98886 63.7308 1.33885 63.2515 0.859589C62.7723 0.380329 62.1222 0.111084 61.4445 0.111084C60.7667 0.111084 60.1167 0.380329 59.6374 0.859589C59.1582 1.33885 58.8889 1.98886 58.8889 2.66664V18C58.8889 18.6777 59.1582 19.3278 59.6374 19.807C60.1167 20.2863 60.7667 20.5555 61.4445 20.5555Z" fill="#313131"/>
<path d="M28.2222 10.3334H53.7777V15.4445H28.2222V10.3334Z" fill="#313131"/>
</g>
<defs>
<clipPath id="clip0_54_44">
<rect width="82" height="77" fill="white"/>
</clipPath>
</defs>
</svg>
