<svg width="97" height="99" viewBox="0 0 97 99" fill="none" xmlns="http://www.w3.org/2000/svg">
<g clip-path="url(#clip0_54_109)">
<path d="M79.2357 21.2518C78.8295 21.0619 78.5091 20.727 78.3372 20.3129C75.8743 14.4326 71.7285 9.41137 66.4207 5.87995C61.1129 2.34854 54.8798 0.464478 48.5046 0.464478C42.1294 0.464478 35.8963 2.34854 30.5885 5.87995C25.2807 9.41137 21.1349 14.4326 18.672 20.3129C18.5001 20.727 18.1797 21.0619 17.7735 21.2518C12.4863 23.6958 8.00497 27.5959 4.85444 32.4951C1.7039 37.3944 0.0146319 43.0899 -0.015512 48.9147C-0.0604338 65.383 13.2903 79.1201 29.7452 79.5379C35.7304 79.696 41.6293 78.085 46.7032 74.9065V95.7188C46.7032 96.1953 46.8925 96.6524 47.2295 96.9893C47.5665 97.3263 48.0236 97.5156 48.5001 97.5156C48.9767 97.5156 49.4337 97.3263 49.7707 96.9893C50.1077 96.6524 50.297 96.1953 50.297 95.7188V74.9065C55.1417 77.9484 60.7483 79.5572 66.4689 79.5469H67.2595C83.7099 79.1291 97.0607 65.392 97.0157 48.9236C96.9881 43.0984 95.301 37.4016 92.152 32.5007C89.003 27.5998 84.5226 23.6978 79.2357 21.2518ZM67.1652 75.9531C61.6014 76.1097 56.1277 74.5234 51.5099 71.416C51.1318 71.1652 50.7245 70.9615 50.297 70.8096V50.1096L70.8667 39.827C71.2932 39.6137 71.6176 39.2397 71.7684 38.7873C71.9192 38.335 71.8841 37.8412 71.6708 37.4147C71.4576 36.9881 71.0836 36.6638 70.6312 36.513C70.1788 36.3622 69.685 36.3973 69.2585 36.6106L50.297 46.0936V31.0313C50.297 30.5547 50.1077 30.0977 49.7707 29.7607C49.4337 29.4237 48.9767 29.2344 48.5001 29.2344C48.0236 29.2344 47.5665 29.4237 47.2295 29.7607C46.8925 30.0977 46.7032 30.5547 46.7032 31.0313V56.8748L27.7417 47.3918C27.3152 47.1786 26.8214 47.1435 26.369 47.2943C25.9166 47.4451 25.5427 47.7694 25.3294 48.1959C25.1161 48.6224 25.0811 49.1162 25.2319 49.5686C25.3827 50.021 25.707 50.395 26.1335 50.6082L46.7032 60.8908V70.8096C46.2757 70.9615 45.8684 71.1652 45.4903 71.416C40.8734 74.5253 35.3991 76.1118 29.8351 75.9531C23.7466 75.7997 17.8895 73.5887 13.2184 69.6805C8.54733 65.7723 5.33755 60.3973 4.11218 54.4315C2.8868 48.4656 3.71808 42.2605 6.47054 36.8276C9.223 31.3946 13.7344 27.054 19.2694 24.5131C20.4882 23.9484 21.4503 22.9463 21.9648 21.7055C24.1528 16.4762 27.838 12.0104 32.5569 8.86952C37.2759 5.72866 42.818 4.0529 48.4866 4.0529C54.1553 4.0529 59.6974 5.72866 64.4164 8.86952C69.1353 12.0104 72.8204 16.4762 75.0085 21.7055C75.523 22.9463 76.485 23.9484 77.7038 24.5131C83.2372 27.0528 87.7477 31.3911 90.5007 36.8215C93.2538 42.2519 94.0872 48.4544 92.8652 54.4188C91.6433 60.3833 88.4379 65.7584 83.7712 69.6686C79.1045 73.5789 73.2514 75.794 67.1652 75.9531Z" fill="#313131"/>
</g>
<defs>
<clipPath id="clip0_54_109">
<rect width="97" height="98" fill="white" transform="translate(0 0.5)"/>
</clipPath>
</defs>
</svg>
